<svg xmlns="http://www.w3.org/2000/svg" width="800" height="166.6" fill="var(--color-caret)" preserveAspectRatio="xMidYMid meet" version="1.0" viewBox="0 0 600 600"><g><path d="M2815 5893 c-141 -13 -409 -59 -539 -92 -386 -99 -755 -283 -1076 -537 -121 -96 -392 -371 -481 -489 -385 -506 -592 -1081 -616 -1706 -18 -461 107 -995 333 -1429 71 -135 219 -363 309 -475 360 -449 910 -817 1456 -974 604 -174 1288 -142 1869 86 972 383 1676 1270 1819 2293 48 343 50 477 11 752 -72 510 -214 898 -475 1288 -118 177 -199 276 -354 430 -232 230 -488 413 -786 560 -214 106 -327 149 -529 200 -308 78 -693 116 -941 93z m635 -154 c219 -27 514 -129 876 -304 94 -45 187 -93 208 -108 l38 -25 -66 -54 c-61 -51 -484 -360 -1166 -853 -168 -122 -310 -224 -317 -228 -14 -9 23 -35 -808 569 -597 434 -747 546 -753 564 -8 24 303 176 603 295 173 69 392 131 505 145 101 12 785 11 880 -1z m1430 -692 c489 -440 827 -1096 895 -1737 17 -158 19 -444 5 -615 -19 -219 -71 -455 -101 -455 -6 0 -38 19 -72 42 -81 55 -730 520 -1056 756 -392 284 -417 304 -413 327 11 62 560 1774 574 1792 15 19 50 -3 168 -110z m-3507 -59 c30 -95 148 -461 261 -813 254 -794 263 -823 245 -839 -27 -25 -1145 -834 -1402 -1015 -65 -46 -123 -81 -131 -78 -34 13 -75 186 -95 397 -54 584 17 1037 238 1513 158 343 445 722 716 948 106 89 103 90 168 -113z m232 18 c308 -205 1216 -864 1254 -910 12 -15 9 -21 -29 -54 -89 -77 -262 -208 -470 -356 -307 -218 -328 -232 -348 -220 -22 14 -468 1382 -518 1588 -8 34 -16 37 111 -48z m2908 -18 c-29 -107 -135 -442 -305 -963 -110 -338 -182 -533 -206 -557 -18 -18 -528 342 -761 537 l-94 78 39 34 c132 111 1318 960 1346 962 4 1 -5 -40 -19 -91z m-1359 -1103 c131 -89 421 -295 662 -471 79 -58 144 -111 144 -118 0 -21 -49 -176 -207 -658 l-147 -448 -350 -2 c-580 -5 -769 -2 -808 11 -35 12 -38 16 -76 124 -43 123 -220 673 -277 861 -20 66 -32 123 -28 126 10 9 398 290 568 412 220 157 358 248 377 248 10 0 74 -38 142 -85z m-1194 -757 c32 -71 248 -713 288 -855 l20 -71 -32 -6 c-49 -10 -1469 -18 -1586 -9 l-105 8 270 200 c233 173 740 544 1015 743 47 34 88 61 91 62 4 0 21 -33 39 -72z m2250 -2 c241 -171 1187 -865 1242 -911 l27 -23 -156 -7 c-181 -9 -1494 1 -1536 11 -36 8 -40 -10 84 376 149 462 217 636 242 622 7 -4 50 -35 97 -68z m-681 -1100 c9 -6 12 -21 8 -50 -5 -36 -200 -643 -412 -1282 -80 -241 -112 -317 -125 -293 -10 18 -370 1113 -448 1364 -73 234 -77 251 -60 262 31 20 1005 19 1037 -1z m-1294 5 l90 -6 78 -230 c74 -219 374 -1138 470 -1442 l45 -143 -66 0 c-326 0 -806 141 -1193 351 -389 211 -758 560 -995 941 -52 83 -274 506 -274 521 0 9 254 12 1055 14 385 0 741 -2 790 -6z m3133 2 l271 -6 -86 -171 c-198 -395 -329 -584 -572 -826 -311 -309 -612 -500 -1041 -662 -190 -72 -495 -137 -764 -163 l-69 -7 7 29 c18 77 507 1579 576 1770 l12 32 81 4 c162 6 1320 7 1585 0z" transform="translate(0.000000,600.000000) scale(0.100000,-0.100000)"/></g></svg>