<svg version="1.0" xmlns="http://www.w3.org/2000/svg" fill="var(--color-caret)" width="800" height="166.6" viewBox="0 0 600 600"><path d="M281.5 10.7c-14.1 1.3-40.9 5.9-53.9 9.2C189 29.8 152.1 48.2 120 73.6c-12.1 9.6-39.2 37.1-48.1 48.9-38.5 50.6-59.2 108.1-61.6 170.6C8.5 339.2 21 392.6 43.6 436c7.1 13.5 21.9 36.3 30.9 47.5 36 44.9 91 81.7 145.6 97.4 60.4 17.4 128.8 14.2 186.9-8.6 97.2-38.3 167.6-127 181.9-229.3 4.8-34.3 5-47.7 1.1-75.2-7.2-51-21.4-89.8-47.5-128.8-11.8-17.7-19.9-27.6-35.4-43-23.2-23-48.8-41.3-78.6-56-21.4-10.6-32.7-14.9-52.9-20-30.8-7.8-69.3-11.6-94.1-9.3zM345 26.1c21.9 2.7 51.4 12.9 87.6 30.4 9.4 4.5 18.7 9.3 20.8 10.8l3.8 2.5-6.6 5.4c-6.1 5.1-48.4 36-116.6 85.3-16.8 12.2-31 22.4-31.7 22.8-1.4.9 2.3 3.5-80.8-56.9C161.8 83 146.8 71.8 146.2 70c-.8-2.4 30.3-17.6 60.3-29.5 17.3-6.9 39.2-13.1 50.5-14.5 10.1-1.2 78.5-1.1 88 .1zm143 69.2c48.9 44 82.7 109.6 89.5 173.7 1.7 15.8 1.9 44.4.5 61.5-1.9 21.9-7.1 45.5-10.1 45.5-.6 0-3.8-1.9-7.2-4.2-8.1-5.5-73-52-105.6-75.6-39.2-28.4-41.7-30.4-41.3-32.7 1.1-6.2 56-177.4 57.4-179.2 1.5-1.9 5 .3 16.8 11zm-350.7 5.9c3 9.5 14.8 46.1 26.1 81.3 25.4 79.4 26.3 82.3 24.5 83.9-2.7 2.5-114.5 83.4-140.2 101.5-6.5 4.6-12.3 8.1-13.1 7.8-3.4-1.3-7.5-18.6-9.5-39.7-5.4-58.4 1.7-103.7 23.8-151.3 15.8-34.3 44.5-72.2 71.6-94.8 10.6-8.9 10.3-9 16.8 11.3zm23.2-1.8c30.8 20.5 121.6 86.4 125.4 91 1.2 1.5.9 2.1-2.9 5.4-8.9 7.7-26.2 20.8-47 35.6-30.7 21.8-32.8 23.2-34.8 22-2.2-1.4-46.8-138.2-51.8-158.8-.8-3.4-1.6-3.7 11.1 4.8zm290.8 1.8c-2.9 10.7-13.5 44.2-30.5 96.3-11 33.8-18.2 53.3-20.6 55.7-1.8 1.8-52.8-34.2-76.1-53.7l-9.4-7.8 3.9-3.4c13.2-11.1 131.8-96 134.6-96.2.4-.1-.5 4-1.9 9.1zM315.4 211.5c13.1 8.9 42.1 29.5 66.2 47.1 7.9 5.8 14.4 11.1 14.4 11.8 0 2.1-4.9 17.6-20.7 65.8L360.6 381l-35 .2c-58 .5-76.9.2-80.8-1.1-3.5-1.2-3.8-1.6-7.6-12.4-4.3-12.3-22-67.3-27.7-86.1-2-6.6-3.2-12.3-2.8-12.6 1-.9 39.8-29 56.8-41.2 22-15.7 35.8-24.8 37.7-24.8 1 0 7.4 3.8 14.2 8.5zM196 287.2c3.2 7.1 24.8 71.3 28.8 85.5l2 7.1-3.2.6c-4.9 1-146.9 1.8-158.6.9l-10.5-.8 27-20c23.3-17.3 74-54.4 101.5-74.3 4.7-3.4 8.8-6.1 9.1-6.2.4 0 2.1 3.3 3.9 7.2zm225 .2c24.1 17.1 118.7 86.5 124.2 91.1l2.7 2.3-15.6.7c-18.1.9-149.4-.1-153.6-1.1-3.6-.8-4 1 8.4-37.6 14.9-46.2 21.7-63.6 24.2-62.2.7.4 5 3.5 9.7 6.8zm-68.1 110c.9.6 1.2 2.1.8 5-.5 3.6-20 64.3-41.2 128.2-8 24.1-11.2 31.7-12.5 29.3-1-1.8-37-111.3-44.8-136.4-7.3-23.4-7.7-25.1-6-26.2 3.1-2 100.5-1.9 103.7.1zm-129.4-.5 9 .6 7.8 23c7.4 21.9 37.4 113.8 47 144.2l4.5 14.3h-6.6c-32.6 0-80.6-14.1-119.3-35.1-38.9-21.1-75.8-56-99.5-94.1-5.2-8.3-27.4-50.6-27.4-52.1 0-.9 25.4-1.2 105.5-1.4 38.5 0 74.1.2 79 .6zm313.3-.2 27.1.6-8.6 17.1c-19.8 39.5-32.9 58.4-57.2 82.6-31.1 30.9-61.2 50-104.1 66.2-19 7.2-49.5 13.7-76.4 16.3l-6.9.7.7-2.9c1.8-7.7 50.7-157.9 57.6-177l1.2-3.2 8.1-.4c16.2-.6 132-.7 158.5 0z"/></svg>